<?xml version="1.0" standalone="no"?>
<!DOCTYPE svg PUBLIC "-//W3C//DTD SVG 20010904//EN"
 "http://www.w3.org/TR/2001/REC-SVG-20010904/DTD/svg10.dtd">
<svg version="1.0" xmlns="http://www.w3.org/2000/svg"
 width="200.000000pt" height="200.000000pt" viewBox="0 0 200.000000 200.000000"
 preserveAspectRatio="xMidYMid meet">

<g transform="translate(0.000000,200.000000) scale(0.100000,-0.100000)"
fill="#000000" stroke="none">
<path d="M650 1742 c-190 -115 -364 -220 -387 -235 l-43 -27 0 -460 0 -459 46
-32 c45 -31 48 -31 73 -16 l26 16 5 364 5 364 250 -161 250 -162 3 -404 2
-405 61 -39 60 -39 57 39 57 39 3 405 2 405 253 162 252 163 3 -359 2 -358 24
-22 24 -23 51 34 51 33 -3 458 -2 459 -125 77 c-251 154 -626 380 -641 386 -8
3 -162 -84 -359 -203z m632 -159 c141 -86 255 -160 252 -164 -2 -4 -37 -28
-77 -52 -39 -24 -157 -97 -262 -162 -104 -65 -194 -118 -200 -118 -12 0 -529
321 -532 331 -5 12 531 332 547 326 8 -3 131 -76 272 -161z"/>
</g>
</svg>
